<svg xmlns="http://www.w3.org/2000/svg" width="320" height="320" viewBox="0 0 320 320">
  <rect width="320" height="320" fill="#efeae2"/>
  <g fill="none" stroke="#ffffff" stroke-opacity="0.28" stroke-width="1.1">
    <path d="M36 38c12-7 26-8 38 0 8 5 17 9 25 9 9 0 17-4 25-9 12-8 26-8 38 0"/>
    <path d="M196 36c10 4 18 12 20 22 1 7-1 15-7 20-7 6-17 6-25 2-8-5-13-13-13-22 0-8 4-16 11-22"/>
    <path d="M92 126c6-6 15-8 24-5 8 2 14 9 16 17 2 9-1 18-8 24-6 6-15 8-24 6-8-3-14-10-16-19-1-8 2-17 8-23z"/>
    <path d="M226 126c13-7 28-7 41 1 12 8 19 21 19 35"/>
    <path d="M37 214c9-11 22-17 36-17 13 0 26 6 35 17"/>
    <path d="M143 225c6-10 17-17 29-18 11-1 23 4 31 12"/>
    <path d="M245 230c7-5 16-7 24-4 7 2 13 8 15 15"/>
  </g>
  <g fill="#ffffff" fill-opacity="0.22">
    <circle cx="64" cy="74" r="4"/>
    <circle cx="280" cy="84" r="3"/>
    <circle cx="42" cy="164" r="3.5"/>
    <circle cx="164" cy="155" r="4"/>
    <circle cx="278" cy="170" r="4"/>
    <circle cx="90" cy="266" r="3"/>
    <circle cx="214" cy="270" r="3.6"/>
  </g>
</svg>